<svg xmlns="http://www.w3.org/2000/svg" viewBox="0 0 50 50" width="50px" height="50px">
  <!-- Фон иконки (зелёный) -->
  <path fill="#F5F5F5" d="M25 2C12.31 2 2 12.31 2 25c0 3.93 1.07 7.62 2.86 10.8L2 46.73a1 1 0 0 0 1.2 1.24l11.01-2.72c3.22 1.72 6.88 2.75 10.79 2.75C37.69 48 48 37.69 48 25S37.69 2 25 2z"/>
  
  <!-- Телефонная трубка (новый слой) -->
  <path 
    fill="#F5F5F5" 
    stroke="#154430" 
    stroke-width="2" 
    stroke-linejoin="round"
    d="M16.64 13c-.64 0-1.56.24-2.31 1.05-.45.49-2.33 2.32-2.33 5.54 0 3.36 2.33 6.26 2.61 6.63l.01.01c-.03-.03.36.52.87 1.19.51.67 1.23 1.54 2.13 2.49 1.8 1.9 4.34 4.09 7.49 5.43 1.45.62 2.59.99 3.46 1.27 1.6.5 3.07.42 4.17.26.82-.12 1.72-.52 2.62-1.08.89-.57 1.77-1.27 2.15-2.34.28-.77.42-1.48.47-2.06.03-.29.03-.55.01-.78-.02-.24 0-.42-.22-.78-.47-.76-.99-.78-1.54-1.05-.31-.15-1.18-.57-2.05-.99-.87-.41-1.63-.78-2.09-.94-.31-.11-.67-.26-1.18-.2-.52.06-1.03.43-1.33.87-.28.42-1.42 1.76-1.77 2.15-.01 0 .03.01-.14-.07-.43-.21-.95-.39-1.73-.8-.78-.41-1.75-1.01-2.81-1.94-1.58-1.39-2.69-3.14-3.04-3.72.02-.03 0 0 .05-.05.36-.35.67-.77.94-1.08.38-.44.55-.82.73-1.18.36-.72.16-1.5-.05-1.92l-.01-.01c.01.03-.12-.25-.26-.57-.14-.33-.31-.75-.50-1.20-.37-.90-.79-1.91-1.04-2.50-.29-.70-.69-1.20-1.21-1.44-.52-.24-.98-.17-1.00-.16l-.01-.01c-.37-.02-.78-.01-1.18-.01z"
  />
</svg>